# Blender v2.78 (sub 0) OBJ File: 'models.blend'
# www.blender.org
mtllib disk.mtl
o Circle.002_Circle.003
v 0.000000 0.000000 -1.000000
v -0.098017 0.000000 -0.995185
v -0.195090 0.000000 -0.980785
v -0.290285 0.000000 -0.956940
v -0.382683 0.000000 -0.923880
v -0.471397 0.000000 -0.881921
v -0.555570 0.000000 -0.831470
v -0.634393 0.000000 -0.773010
v -0.707107 0.000000 -0.707107
v -0.773010 0.000000 -0.634393
v -0.831470 0.000000 -0.555570
v -0.881921 0.000000 -0.471397
v -0.923880 0.000000 -0.382683
v -0.956940 0.000000 -0.290285
v -0.980785 0.000000 -0.195090
v -0.995185 0.000000 -0.098017
v -1.000000 0.000000 0.000000
v -0.995185 0.000000 0.098017
v -0.980785 0.000000 0.195091
v -0.956940 0.000000 0.290285
v -0.923879 0.000000 0.382684
v -0.881921 0.000000 0.471397
v -0.831469 0.000000 0.555571
v -0.773010 0.000000 0.634394
v -0.707106 0.000000 0.707107
v -0.634393 0.000000 0.773011
v -0.555570 0.000000 0.831470
v -0.471396 0.000000 0.881922
v -0.382683 0.000000 0.923880
v -0.290284 0.000000 0.956941
v -0.195090 0.000000 0.980785
v -0.098016 0.000000 0.995185
v 0.000001 0.000000 1.000000
v 0.098018 0.000000 0.995185
v 0.195091 0.000000 0.980785
v 0.290286 0.000000 0.956940
v 0.382684 0.000000 0.923879
v 0.471398 0.000000 0.881921
v 0.555571 0.000000 0.831469
v 0.634394 0.000000 0.773010
v 0.707108 0.000000 0.707106
v 0.773011 0.000000 0.634393
v 0.831470 0.000000 0.555570
v 0.881922 0.000000 0.471396
v 0.923880 0.000000 0.382683
v 0.956940 0.000000 0.290285
v 0.980785 0.000000 0.195090
v 0.995185 0.000000 0.098017
v 1.000000 0.000000 0.000000
v 0.995185 0.000000 -0.098016
v 0.980785 0.000000 -0.195089
v 0.956941 0.000000 -0.290284
v 0.923880 0.000000 -0.382682
v 0.881922 0.000000 -0.471395
v 0.831471 0.000000 -0.555569
v 0.773012 0.000000 -0.634392
v 0.707108 0.000000 -0.707105
v 0.634395 0.000000 -0.773009
v 0.555572 0.000000 -0.831468
v 0.471399 0.000000 -0.881920
v 0.382686 0.000000 -0.923878
v 0.290288 0.000000 -0.956939
v 0.195093 0.000000 -0.980785
v 0.098021 0.000000 -0.995184
v 0.000000 0.000000 -0.000000
vt 0.4510 0.9976
vt 0.4025 0.9904
vt 0.5000 0.5000
vt 0.3549 0.9785
vt 0.3087 0.9619
vt 0.2643 0.9410
vt 0.2222 0.9157
vt 0.1828 0.8865
vt 0.1464 0.8536
vt 0.1135 0.8172
vt 0.0843 0.7778
vt 0.0590 0.7357
vt 0.0381 0.6913
vt 0.0215 0.6451
vt 0.0096 0.5975
vt 0.0024 0.5490
vt 0.0000 0.5000
vt 0.0024 0.4510
vt 0.0096 0.4025
vt 0.0215 0.3549
vt 0.0381 0.3087
vt 0.0590 0.2643
vt 0.0843 0.2222
vt 0.1135 0.1828
vt 0.1464 0.1464
vt 0.1828 0.1135
vt 0.2222 0.0843
vt 0.2643 0.0590
vt 0.3087 0.0381
vt 0.3549 0.0215
vt 0.4025 0.0096
vt 0.4510 0.0024
vt 0.5000 0.0000
vt 0.5490 0.0024
vt 0.5975 0.0096
vt 0.6451 0.0215
vt 0.6913 0.0381
vt 0.7357 0.0590
vt 0.7778 0.0843
vt 0.8172 0.1135
vt 0.8536 0.1464
vt 0.8865 0.1828
vt 0.9157 0.2222
vt 0.9410 0.2643
vt 0.9619 0.3087
vt 0.9785 0.3549
vt 0.9904 0.4025
vt 0.9976 0.4510
vt 1.0000 0.5000
vt 0.9976 0.5490
vt 0.9904 0.5975
vt 0.9785 0.6451
vt 0.9619 0.6913
vt 0.9410 0.7357
vt 0.9157 0.7778
vt 0.8865 0.8172
vt 0.8536 0.8536
vt 0.8172 0.8865
vt 0.7778 0.9157
vt 0.7357 0.9410
vt 0.6913 0.9619
vt 0.6451 0.9785
vt 0.5975 0.9904
vt 0.5490 0.9976
vt 0.5000 1.0000
vn 0.0000 1.0000 0.0000
usemtl None
s off
f 2/1/1 3/2/1 65/3/1
f 3/2/1 4/4/1 65/3/1
f 4/4/1 5/5/1 65/3/1
f 5/5/1 6/6/1 65/3/1
f 6/6/1 7/7/1 65/3/1
f 7/7/1 8/8/1 65/3/1
f 8/8/1 9/9/1 65/3/1
f 9/9/1 10/10/1 65/3/1
f 10/10/1 11/11/1 65/3/1
f 11/11/1 12/12/1 65/3/1
f 12/12/1 13/13/1 65/3/1
f 13/13/1 14/14/1 65/3/1
f 14/14/1 15/15/1 65/3/1
f 15/15/1 16/16/1 65/3/1
f 16/16/1 17/17/1 65/3/1
f 17/17/1 18/18/1 65/3/1
f 18/18/1 19/19/1 65/3/1
f 19/19/1 20/20/1 65/3/1
f 20/20/1 21/21/1 65/3/1
f 21/21/1 22/22/1 65/3/1
f 22/22/1 23/23/1 65/3/1
f 23/23/1 24/24/1 65/3/1
f 24/24/1 25/25/1 65/3/1
f 25/25/1 26/26/1 65/3/1
f 26/26/1 27/27/1 65/3/1
f 27/27/1 28/28/1 65/3/1
f 28/28/1 29/29/1 65/3/1
f 29/29/1 30/30/1 65/3/1
f 30/30/1 31/31/1 65/3/1
f 31/31/1 32/32/1 65/3/1
f 32/32/1 33/33/1 65/3/1
f 33/33/1 34/34/1 65/3/1
f 34/34/1 35/35/1 65/3/1
f 35/35/1 36/36/1 65/3/1
f 36/36/1 37/37/1 65/3/1
f 37/37/1 38/38/1 65/3/1
f 38/38/1 39/39/1 65/3/1
f 39/39/1 40/40/1 65/3/1
f 40/40/1 41/41/1 65/3/1
f 41/41/1 42/42/1 65/3/1
f 42/42/1 43/43/1 65/3/1
f 43/43/1 44/44/1 65/3/1
f 44/44/1 45/45/1 65/3/1
f 45/45/1 46/46/1 65/3/1
f 46/46/1 47/47/1 65/3/1
f 47/47/1 48/48/1 65/3/1
f 48/48/1 49/49/1 65/3/1
f 49/49/1 50/50/1 65/3/1
f 50/50/1 51/51/1 65/3/1
f 51/51/1 52/52/1 65/3/1
f 52/52/1 53/53/1 65/3/1
f 53/53/1 54/54/1 65/3/1
f 54/54/1 55/55/1 65/3/1
f 55/55/1 56/56/1 65/3/1
f 56/56/1 57/57/1 65/3/1
f 57/57/1 58/58/1 65/3/1
f 58/58/1 59/59/1 65/3/1
f 59/59/1 60/60/1 65/3/1
f 60/60/1 61/61/1 65/3/1
f 61/61/1 62/62/1 65/3/1
f 62/62/1 63/63/1 65/3/1
f 63/63/1 64/64/1 65/3/1
f 64/64/1 1/65/1 65/3/1
f 1/65/1 2/1/1 65/3/1
