# Blender v2.78 (sub 0) OBJ File: 'models.blend'
# www.blender.org
mtllib supernova disk.mtl
o Circle.004
v 0.000000 0.000000 -1.000000
v -0.098017 0.000000 -0.995185
v -0.195090 0.000000 -0.980785
v -0.290285 0.000000 -0.956940
v -0.382683 0.000000 -0.923880
v -0.471397 0.000000 -0.881921
v -0.555570 0.000000 -0.831470
v -0.634393 0.000000 -0.773010
v -0.707107 0.000000 -0.707107
v -0.773010 0.000000 -0.634393
v -0.831470 0.000000 -0.555570
v -0.881921 0.000000 -0.471397
v -0.923880 0.000000 -0.382683
v -0.956940 0.000000 -0.290285
v -0.980785 0.000000 -0.195090
v -0.995185 0.000000 -0.098017
v -1.000000 0.000000 0.000000
v -0.995185 0.000000 0.098017
v -0.980785 0.000000 0.195091
v -0.956940 0.000000 0.290285
v -0.923879 0.000000 0.382684
v -0.881921 0.000000 0.471397
v -0.831469 0.000000 0.555571
v -0.773010 0.000000 0.634394
v -0.707106 0.000000 0.707107
v -0.634393 0.000000 0.773011
v -0.555570 0.000000 0.831470
v -0.471396 0.000000 0.881922
v -0.382683 0.000000 0.923880
v -0.290284 0.000000 0.956941
v -0.195090 0.000000 0.980785
v -0.098016 0.000000 0.995185
v 0.000001 0.000000 1.000000
v 0.098018 0.000000 0.995185
v 0.195091 0.000000 0.980785
v 0.290286 0.000000 0.956940
v 0.382684 0.000000 0.923879
v 0.471398 0.000000 0.881921
v 0.555571 0.000000 0.831469
v 0.634394 0.000000 0.773010
v 0.707108 0.000000 0.707106
v 0.773011 0.000000 0.634393
v 0.831470 0.000000 0.555570
v 0.881922 0.000000 0.471396
v 0.923880 0.000000 0.382683
v 0.956940 0.000000 0.290285
v 0.980785 0.000000 0.195090
v 0.995185 0.000000 0.098017
v 1.000000 0.000000 0.000000
v 0.995185 0.000000 -0.098016
v 0.980785 0.000000 -0.195089
v 0.956941 0.000000 -0.290284
v 0.923880 0.000000 -0.382682
v 0.881922 0.000000 -0.471395
v 0.831471 0.000000 -0.555569
v 0.773012 0.000000 -0.634392
v 0.707108 0.000000 -0.707105
v 0.634395 0.000000 -0.773009
v 0.555572 0.000000 -0.831468
v 0.471399 0.000000 -0.881920
v 0.382686 0.000000 -0.923878
v 0.290288 0.000000 -0.956939
v 0.195093 0.000000 -0.980785
v 0.098021 0.000000 -0.995184
v -0.040756 0.000000 -0.413798
v 0.000000 0.000000 -0.415800
v -0.081119 0.000000 -0.407811
v -0.120700 0.000000 -0.397896
v -0.159120 0.000000 -0.384149
v -0.196007 0.000000 -0.366703
v -0.231006 0.000000 -0.345725
v -0.263781 0.000000 -0.321418
v -0.294015 0.000000 -0.294015
v -0.321418 0.000000 -0.263781
v -0.345725 0.000000 -0.231006
v -0.366703 0.000000 -0.196007
v -0.384149 0.000000 -0.159120
v -0.397896 0.000000 -0.120700
v -0.407811 0.000000 -0.081119
v -0.413798 0.000000 -0.040755
v -0.415800 0.000000 0.000000
v -0.413798 0.000000 0.040756
v -0.407811 0.000000 0.081119
v -0.397896 0.000000 0.120700
v -0.384149 0.000000 0.159120
v -0.366703 0.000000 0.196007
v -0.345725 0.000000 0.231006
v -0.321418 0.000000 0.263781
v -0.294015 0.000000 0.294015
v -0.263781 0.000000 0.321418
v -0.231006 0.000000 0.345725
v -0.196007 0.000000 0.366703
v -0.159120 0.000000 0.384149
v -0.120700 0.000000 0.397896
v -0.081118 0.000000 0.407811
v -0.040755 0.000000 0.413798
v 0.000000 0.000000 0.415800
v 0.040756 0.000000 0.413798
v 0.081119 0.000000 0.407811
v 0.120701 0.000000 0.397896
v 0.159120 0.000000 0.384149
v 0.196007 0.000000 0.366703
v 0.231006 0.000000 0.345725
v 0.263781 0.000000 0.321417
v 0.294015 0.000000 0.294015
v 0.321418 0.000000 0.263780
v 0.345725 0.000000 0.231006
v 0.366703 0.000000 0.196007
v 0.384149 0.000000 0.159120
v 0.397896 0.000000 0.120700
v 0.407811 0.000000 0.081119
v 0.413798 0.000000 0.040756
v 0.415800 0.000000 0.000000
v 0.413798 0.000000 -0.040755
v 0.407811 0.000000 -0.081118
v 0.397896 0.000000 -0.120700
v 0.384149 0.000000 -0.159119
v 0.366703 0.000000 -0.196006
v 0.345725 0.000000 -0.231006
v 0.321418 0.000000 -0.263780
v 0.294016 0.000000 -0.294014
v 0.263781 0.000000 -0.321417
v 0.231007 0.000000 -0.345725
v 0.196008 0.000000 -0.366702
v 0.159121 0.000000 -0.384149
v 0.120702 0.000000 -0.397895
v 0.081120 0.000000 -0.407810
v 0.040757 0.000000 -0.413798
vt 0.0000 0.0000
vt 1.0000 0.0000
vt 1.0000 1.0000
vt 0.0000 1.0000
vt 0.0000 0.0000
vt 1.0000 0.0000
vt 1.0000 1.0000
vt 0.0000 1.0000
vt 0.0000 0.0000
vt 1.0000 0.0000
vt 1.0000 1.0000
vt 0.0000 1.0000
vt 0.0000 0.0000
vt 1.0000 0.0000
vt 1.0000 1.0000
vt 0.0000 1.0000
vt 0.0000 0.0000
vt 1.0000 0.0000
vt 1.0000 1.0000
vt 0.0000 1.0000
vt 0.0000 0.0000
vt 1.0000 0.0000
vt 1.0000 1.0000
vt 0.0000 1.0000
vt 0.0000 0.0000
vt 1.0000 0.0000
vt 1.0000 1.0000
vt 0.0000 1.0000
vt 0.0000 0.0000
vt 1.0000 0.0000
vt 1.0000 1.0000
vt 0.0000 1.0000
vt 0.0000 0.0000
vt 1.0000 0.0000
vt 1.0000 1.0000
vt 0.0000 1.0000
vt 0.0000 0.0000
vt 1.0000 0.0000
vt 1.0000 1.0000
vt 0.0000 1.0000
vt 0.0000 0.0000
vt 1.0000 0.0000
vt 1.0000 1.0000
vt 0.0000 1.0000
vt 0.0000 0.0000
vt 1.0000 0.0000
vt 1.0000 1.0000
vt 0.0000 1.0000
vt 0.0000 0.0000
vt 1.0000 0.0000
vt 1.0000 1.0000
vt 0.0000 1.0000
vt 0.0000 0.0000
vt 1.0000 0.0000
vt 1.0000 1.0000
vt 0.0000 1.0000
vt 0.0000 0.0000
vt 1.0000 0.0000
vt 1.0000 1.0000
vt 0.0000 1.0000
vt 0.0000 0.0000
vt 1.0000 0.0000
vt 1.0000 1.0000
vt 0.0000 1.0000
vt 0.0000 0.0000
vt 1.0000 0.0000
vt 1.0000 1.0000
vt 0.0000 1.0000
vt 0.0000 0.0000
vt 1.0000 0.0000
vt 1.0000 1.0000
vt 0.0000 1.0000
vt 0.0000 0.0000
vt 1.0000 0.0000
vt 1.0000 1.0000
vt 0.0000 1.0000
vt 0.0000 0.0000
vt 1.0000 0.0000
vt 1.0000 1.0000
vt 0.0000 1.0000
vt 0.0000 0.0000
vt 1.0000 0.0000
vt 1.0000 1.0000
vt 0.0000 1.0000
vt 0.0000 0.0000
vt 1.0000 0.0000
vt 1.0000 1.0000
vt 0.0000 1.0000
vt 0.0000 0.0000
vt 1.0000 0.0000
vt 1.0000 1.0000
vt 0.0000 1.0000
vt 0.0000 0.0000
vt 1.0000 0.0000
vt 1.0000 1.0000
vt 0.0000 1.0000
vt 0.0000 0.0000
vt 1.0000 0.0000
vt 1.0000 1.0000
vt 0.0000 1.0000
vt 0.0000 0.0000
vt 1.0000 0.0000
vt 1.0000 1.0000
vt 0.0000 1.0000
vt 0.0000 0.0000
vt 1.0000 0.0000
vt 1.0000 1.0000
vt 0.0000 1.0000
vt 0.0000 0.0000
vt 1.0000 0.0000
vt 1.0000 1.0000
vt 0.0000 1.0000
vt 0.0000 0.0000
vt 1.0000 0.0000
vt 1.0000 1.0000
vt 0.0000 1.0000
vt 0.0000 0.0000
vt 1.0000 0.0000
vt 1.0000 1.0000
vt 0.0000 1.0000
vt 0.0000 0.0000
vt 1.0000 0.0000
vt 1.0000 1.0000
vt 0.0000 1.0000
vt 0.0000 0.0000
vt 1.0000 0.0000
vt 1.0000 1.0000
vt 0.0000 1.0000
vt 0.0000 0.0000
vt 1.0000 0.0000
vt 1.0000 1.0000
vt 0.0000 1.0000
vt 0.0000 0.0000
vt 1.0000 0.0000
vt 1.0000 1.0000
vt 0.0000 1.0000
vt 0.0000 0.0000
vt 1.0000 0.0000
vt 1.0000 1.0000
vt 0.0000 1.0000
vt 0.0000 0.0000
vt 1.0000 0.0000
vt 1.0000 1.0000
vt 0.0000 1.0000
vt 0.0000 0.0000
vt 1.0000 0.0000
vt 1.0000 1.0000
vt 0.0000 1.0000
vt 0.0000 0.0000
vt 1.0000 0.0000
vt 1.0000 1.0000
vt 0.0000 1.0000
vt 0.0000 0.0000
vt 1.0000 0.0000
vt 1.0000 1.0000
vt 0.0000 1.0000
vt 0.0000 0.0000
vt 1.0000 0.0000
vt 1.0000 1.0000
vt 0.0000 1.0000
vt 0.0000 0.0000
vt 1.0000 0.0000
vt 1.0000 1.0000
vt 0.0000 1.0000
vt 0.0000 0.0000
vt 1.0000 0.0000
vt 1.0000 1.0000
vt 0.0000 1.0000
vt 0.0000 0.0000
vt 1.0000 0.0000
vt 1.0000 1.0000
vt 0.0000 1.0000
vt 0.0000 0.0000
vt 1.0000 0.0000
vt 1.0000 1.0000
vt 0.0000 1.0000
vt 0.0000 0.0000
vt 1.0000 0.0000
vt 1.0000 1.0000
vt 0.0000 1.0000
vt 0.0000 0.0000
vt 1.0000 0.0000
vt 1.0000 1.0000
vt 0.0000 1.0000
vt 0.0000 0.0000
vt 1.0000 0.0000
vt 1.0000 1.0000
vt 0.0000 1.0000
vt 0.0000 0.0000
vt 1.0000 0.0000
vt 1.0000 1.0000
vt 0.0000 1.0000
vt 0.0000 0.0000
vt 1.0000 0.0000
vt 1.0000 1.0000
vt 0.0000 1.0000
vt 0.0000 0.0000
vt 1.0000 0.0000
vt 1.0000 1.0000
vt 0.0000 1.0000
vt 0.0000 0.0000
vt 1.0000 0.0000
vt 1.0000 1.0000
vt 0.0000 1.0000
vt 0.0000 0.0000
vt 1.0000 0.0000
vt 1.0000 1.0000
vt 0.0000 1.0000
vt 0.0000 0.0000
vt 1.0000 0.0000
vt 1.0000 1.0000
vt 0.0000 1.0000
vt 0.0000 0.0000
vt 1.0000 0.0000
vt 1.0000 1.0000
vt 0.0000 1.0000
vt 0.0000 0.0000
vt 1.0000 0.0000
vt 1.0000 1.0000
vt 0.0000 1.0000
vt 0.0000 0.0000
vt 1.0000 0.0000
vt 1.0000 1.0000
vt 0.0000 1.0000
vt 0.0000 0.0000
vt 1.0000 0.0000
vt 1.0000 1.0000
vt 0.0000 1.0000
vt 0.0000 0.0000
vt 1.0000 0.0000
vt 1.0000 1.0000
vt 0.0000 1.0000
vt 0.0000 0.0000
vt 1.0000 0.0000
vt 1.0000 1.0000
vt 0.0000 1.0000
vt 0.0000 0.0000
vt 1.0000 0.0000
vt 1.0000 1.0000
vt 0.0000 1.0000
vt 0.0000 0.0000
vt 1.0000 0.0000
vt 1.0000 1.0000
vt 0.0000 1.0000
vt 0.0000 0.0000
vt 1.0000 0.0000
vt 1.0000 1.0000
vt 0.0000 1.0000
vt 0.0000 0.0000
vt 1.0000 0.0000
vt 1.0000 1.0000
vt 0.0000 1.0000
vt 0.0000 0.0000
vt 1.0000 0.0000
vt 1.0000 1.0000
vt 0.0000 1.0000
vn 0.0000 1.0000 0.0000
usemtl None
s off
f 65/1/1 66/2/1 1/3/1 2/4/1
f 67/5/1 65/6/1 2/7/1 3/8/1
f 68/9/1 67/10/1 3/11/1 4/12/1
f 69/13/1 68/14/1 4/15/1 5/16/1
f 70/17/1 69/18/1 5/19/1 6/20/1
f 71/21/1 70/22/1 6/23/1 7/24/1
f 72/25/1 71/26/1 7/27/1 8/28/1
f 73/29/1 72/30/1 8/31/1 9/32/1
f 74/33/1 73/34/1 9/35/1 10/36/1
f 75/37/1 74/38/1 10/39/1 11/40/1
f 76/41/1 75/42/1 11/43/1 12/44/1
f 77/45/1 76/46/1 12/47/1 13/48/1
f 78/49/1 77/50/1 13/51/1 14/52/1
f 79/53/1 78/54/1 14/55/1 15/56/1
f 80/57/1 79/58/1 15/59/1 16/60/1
f 81/61/1 80/62/1 16/63/1 17/64/1
f 82/65/1 81/66/1 17/67/1 18/68/1
f 83/69/1 82/70/1 18/71/1 19/72/1
f 84/73/1 83/74/1 19/75/1 20/76/1
f 85/77/1 84/78/1 20/79/1 21/80/1
f 86/81/1 85/82/1 21/83/1 22/84/1
f 87/85/1 86/86/1 22/87/1 23/88/1
f 88/89/1 87/90/1 23/91/1 24/92/1
f 89/93/1 88/94/1 24/95/1 25/96/1
f 90/97/1 89/98/1 25/99/1 26/100/1
f 91/101/1 90/102/1 26/103/1 27/104/1
f 92/105/1 91/106/1 27/107/1 28/108/1
f 93/109/1 92/110/1 28/111/1 29/112/1
f 94/113/1 93/114/1 29/115/1 30/116/1
f 95/117/1 94/118/1 30/119/1 31/120/1
f 96/121/1 95/122/1 31/123/1 32/124/1
f 97/125/1 96/126/1 32/127/1 33/128/1
f 98/129/1 97/130/1 33/131/1 34/132/1
f 99/133/1 98/134/1 34/135/1 35/136/1
f 100/137/1 99/138/1 35/139/1 36/140/1
f 101/141/1 100/142/1 36/143/1 37/144/1
f 102/145/1 101/146/1 37/147/1 38/148/1
f 103/149/1 102/150/1 38/151/1 39/152/1
f 104/153/1 103/154/1 39/155/1 40/156/1
f 105/157/1 104/158/1 40/159/1 41/160/1
f 106/161/1 105/162/1 41/163/1 42/164/1
f 107/165/1 106/166/1 42/167/1 43/168/1
f 108/169/1 107/170/1 43/171/1 44/172/1
f 109/173/1 108/174/1 44/175/1 45/176/1
f 110/177/1 109/178/1 45/179/1 46/180/1
f 111/181/1 110/182/1 46/183/1 47/184/1
f 112/185/1 111/186/1 47/187/1 48/188/1
f 113/189/1 112/190/1 48/191/1 49/192/1
f 114/193/1 113/194/1 49/195/1 50/196/1
f 115/197/1 114/198/1 50/199/1 51/200/1
f 116/201/1 115/202/1 51/203/1 52/204/1
f 117/205/1 116/206/1 52/207/1 53/208/1
f 118/209/1 117/210/1 53/211/1 54/212/1
f 119/213/1 118/214/1 54/215/1 55/216/1
f 120/217/1 119/218/1 55/219/1 56/220/1
f 121/221/1 120/222/1 56/223/1 57/224/1
f 122/225/1 121/226/1 57/227/1 58/228/1
f 123/229/1 122/230/1 58/231/1 59/232/1
f 124/233/1 123/234/1 59/235/1 60/236/1
f 125/237/1 124/238/1 60/239/1 61/240/1
f 126/241/1 125/242/1 61/243/1 62/244/1
f 127/245/1 126/246/1 62/247/1 63/248/1
f 128/249/1 127/250/1 63/251/1 64/252/1
f 66/253/1 128/254/1 64/255/1 1/256/1
